<svg version="1.1" xmlns="http://www.w3.org/2000/svg" xmlns:xlink="http://www.w3.org/1999/xlink" viewBox="0 0 256 256"><g><path d="M0,256v-256h256v256z" fill="none"></path><g transform="scale(8.53333,8.53333)"><path d="M24.93945,2.74609c-0.3894,-0.00375 -0.74557,0.21886 -0.91281,0.57054c-0.16724,0.35167 -0.11515,0.76845 0.13352,1.06814c2.39824,2.98313 3.83984,6.75496 3.83984,10.87109c0,3.89791 -1.30242,7.47958 -3.47852,10.38672c-0.33116,0.44226 -0.24109,1.06924 0.20117,1.40039c0.44226,0.33116 1.06924,0.24109 1.40039,-0.20117c2.41991,-3.23286 3.87695,-7.24185 3.87695,-11.58594c0,-4.58387 -1.61149,-8.80413 -4.28125,-12.125c-0.18755,-0.24032 -0.47447,-0.38198 -0.7793,-0.38477zM20.03711,5.64648c-0.38881,-0.00844 -0.74726,0.20929 -0.919,0.55822c-0.17174,0.34893 -0.12563,0.76578 0.11822,1.06874c1.7271,2.20979 2.76367,4.97032 2.76367,7.98242c0,2.79926 -0.89419,5.38106 -2.40625,7.50781c-0.22386,0.29028 -0.27097,0.67976 -0.12279,1.01504c0.14819,0.33528 0.46792,0.56262 0.83327,0.59248c0.36535,0.02986 0.71776,-0.14255 0.91842,-0.44932c1.73993,-2.44725 2.77734,-5.43927 2.77734,-8.66602c0,-3.4719 -1.2006,-6.67068 -3.1875,-9.21289c-0.18433,-0.24367 -0.46993,-0.3897 -0.77539,-0.39648zM11,7l-4.20703,4h-3.79297c-1.657,0 -3,1.343 -3,3v2c0,1.657 1.343,3 3,3h3.79297l4.20703,4zM14.73828,8.5918c-0.4063,-0.0087 -0.77747,0.22933 -0.93905,0.60222c-0.16159,0.37289 -0.08146,0.80648 0.20273,1.097c1.2375,1.29647 1.99805,3.03714 1.99805,4.96484c0,1.72317 -0.60744,3.29795 -1.61914,4.54102c-0.23899,0.2756 -0.30896,0.65946 -0.18259,1.00166c0.12637,0.3422 0.42904,0.58845 0.78979,0.64257c0.36075,0.05412 0.72236,-0.09247 0.94358,-0.38252c1.2883,-1.58293 2.06836,-3.6079 2.06836,-5.80273c0,-2.45629 -0.97628,-4.69617 -2.55078,-6.3457c-0.18421,-0.19784 -0.44067,-0.31268 -0.71094,-0.31836z"></path></g></g></svg>