<svg version="1.1" xmlns="http://www.w3.org/2000/svg" xmlns:xlink="http://www.w3.org/1999/xlink" viewBox="0 0 256 256"><g><path d="M0,256v-256h256v256z" fill="none"></path><g transform="scale(8.53333,8.53333)"><path d="M1.70703,0.29297l-1.41406,1.41406l28,28l1.41406,-1.41406l-2.71484,-2.71484c1.97109,-3.10319 3.00781,-6.64074 3.00781,-10.32227c0,-4.385 -1.52025,-8.69 -4.28125,-12.125c-0.346,-0.429 -0.97625,-0.49734 -1.40625,-0.15234c-0.431,0.346 -0.49834,0.97625 -0.15234,1.40625c2.512,3.124 3.83984,6.88409 3.83984,10.87109c0,3.14718 -0.85463,6.17523 -2.4668,8.86328l-2.81836,-2.81836c0.84467,-1.8947 1.28516,-3.94286 1.28516,-6.04492c0,-3.359 -1.1025,-6.54489 -3.1875,-9.21289c-0.341,-0.435 -0.9693,-0.51283 -1.4043,-0.17383c-0.435,0.34 -0.51187,0.9693 -0.17187,1.4043c1.807,2.313 2.76367,5.07342 2.76367,7.98242c0,1.55458 -0.28624,3.0728 -0.82422,4.50586l-3.27344,-3.27344c0.05715,-0.40758 0.09766,-0.81803 0.09766,-1.23242c0,-2.367 -0.90578,-4.6207 -2.55078,-6.3457c-0.382,-0.399 -1.01406,-0.4142 -1.41406,-0.0332c-0.399,0.381 -0.4152,1.01506 -0.0332,1.41406c1.1233,1.17824 1.80641,2.66971 1.96289,4.25977l-4.96484,-4.96484v-2.58594l-1.32617,1.25977zM3,11c-1.657,0 -3,1.343 -3,3v2c0,1.657 1.343,3 3,3h3.79492l4.20508,4v-7.78125l-4.21875,-4.21875zM14.86523,19.08594c-0.153,0.242 -0.30042,0.48694 -0.48242,0.71094c-0.348,0.428 -0.28447,1.05825 0.14453,1.40625c0.186,0.151 0.40886,0.22461 0.63086,0.22461c0.291,0 0.57839,-0.12614 0.77539,-0.36914c0.137,-0.168 0.26272,-0.34353 0.38672,-0.51953z"></path></g></g></svg>