<svg version="1.1" xmlns="http://www.w3.org/2000/svg" xmlns:xlink="http://www.w3.org/1999/xlink" viewBox="0 0 256 256"><g><path d="M0,256v-256h256v256z" fill="none"></path><g transform="scale(10.66667,10.66667)"><path d="M12,3c-1.657,0 -3,1.343 -3,3v6c0,1.657 1.343,3 3,3c1.657,0 3,-1.343 3,-3v-6c0,-1.657 -1.343,-3 -3,-3zM6.08789,12c-0.606,0 -1.09409,0.53872 -0.99609,1.13672c0.48898,3.00062 2.88919,5.35226 5.9082,5.78516v2.07813c0,0.552 0.448,1 1,1c0.552,0 1,-0.448 1,-1v-2.08008c0.72415,-0.10637 1.41503,-0.31837 2.05078,-0.62695l-1.54883,-1.54883c-0.477,0.151 -0.97495,0.25586 -1.50195,0.25586c-2.471,0 -4.52373,-1.79244 -4.92773,-4.14844c-0.083,-0.487 -0.48842,-0.85156 -0.98242,-0.85156zM17.41406,15.41406c-0.25587,0 -0.51153,0.09747 -0.70703,0.29297c-0.391,0.39 -0.391,1.02306 0,1.41406l1.41406,1.41406l-1.41406,1.41406c-0.391,0.39 -0.391,1.02306 0,1.41406c0.39,0.391 1.02306,0.391 1.41406,0l1.41406,-1.41406l1.41406,1.41406c0.39,0.391 1.02306,0.391 1.41406,0c0.39,-0.391 0.39,-1.02406 0,-1.41406l-1.41406,-1.41406l1.41406,-1.41406c0.391,-0.39 0.391,-1.02306 0,-1.41406c-0.391,-0.39 -1.02406,-0.39 -1.41406,0l-1.41406,1.41406l-1.41406,-1.41406c-0.195,-0.1955 -0.45116,-0.29297 -0.70703,-0.29297z"></path></g></g></svg>