<svg version="1.1" xmlns="http://www.w3.org/2000/svg" xmlns:xlink="http://www.w3.org/1999/xlink" viewBox="0 0 256 256"><g><path d="M0,256v-256h256v256z" fill="none"></path><g transform="scale(10.66667,10.66667)"><path d="M12,2c-1.657,0 -3,1.343 -3,3v6c0,1.657 1.343,3 3,3c1.657,0 3,-1.343 3,-3v-6c0,-1.657 -1.343,-3 -3,-3zM6.08789,11c-0.606,0 -1.09409,0.53772 -0.99609,1.13672c0.48988,2.99972 2.88934,5.35227 5.9082,5.78516v2.07813c0,0.552 0.448,1 1,1c0.552,0 1,-0.448 1,-1v-2.07812c3.01887,-0.43288 5.41832,-2.78544 5.9082,-5.78516c0.098,-0.599 -0.39009,-1.13672 -0.99609,-1.13672c-0.494,0 -0.90138,0.36356 -0.98437,0.85156c-0.405,2.355 -2.45673,4.14844 -4.92773,4.14844c-2.471,0 -4.52273,-1.79344 -4.92773,-4.14844c-0.083,-0.488 -0.48937,-0.85156 -0.98437,-0.85156z"></path></g></g></svg>